<?xml version="1.0" encoding="utf-8"?>
<svg baseProfile="tiny-ps" fill="none" height="400" shape-rendering="geometricPrecision" version="1.2" viewBox="0 0 400 400" width="400" xmlns="http://www.w3.org/2000/svg">
<title>Omini Media</title>
<rect fill="black" height="400" width="400"/>
<path d="M237.756 248.048C236.067 248.048 234.544 247.625 233.187 246.781C231.83 245.936 230.768 244.784 230 243.325C229.232 241.865 228.848 240.227 228.848 238.409C228.848 236.566 229.232 234.915 230 233.456C230.768 231.997 231.83 230.845 233.187 230C234.544 229.155 236.067 228.733 237.756 228.733C239.088 228.733 240.278 229.001 241.328 229.539C242.377 230.077 243.209 230.832 243.824 231.805C244.464 232.752 244.809 233.827 244.86 235.03V241.712C244.809 242.941 244.464 244.029 243.824 244.976C243.209 245.923 242.377 246.678 241.328 247.241C240.278 247.779 239.088 248.048 237.756 248.048ZM238.678 243.401C240.086 243.401 241.225 242.941 242.096 242.019C242.966 241.072 243.401 239.856 243.401 238.371C243.401 237.398 243.196 236.541 242.787 235.798C242.403 235.03 241.852 234.441 241.136 234.032C240.444 233.597 239.625 233.379 238.678 233.379C237.756 233.379 236.937 233.597 236.22 234.032C235.529 234.441 234.979 235.03 234.569 235.798C234.185 236.541 233.993 237.398 233.993 238.371C233.993 239.369 234.185 240.253 234.569 241.021C234.979 241.763 235.529 242.352 236.22 242.787C236.937 243.197 237.756 243.401 238.678 243.401ZM243.132 247.664V242.672L243.939 238.141L243.132 233.686V229.117H248.124V247.664H243.132Z" fill="#A6E4D3"/>
<path d="M218.554 247.664V229.117H223.623V247.664H218.554ZM221.089 226.122C220.269 226.122 219.591 225.853 219.053 225.315C218.516 224.752 218.247 224.061 218.247 223.242C218.247 222.448 218.516 221.77 219.053 221.206C219.591 220.643 220.269 220.362 221.089 220.362C221.933 220.362 222.612 220.643 223.124 221.206C223.661 221.77 223.93 222.448 223.93 223.242C223.93 224.061 223.661 224.752 223.124 225.315C222.612 225.853 221.933 226.122 221.089 226.122Z" fill="#A6E4D3"/>
<path d="M201.893 248.048C200.178 248.048 198.642 247.626 197.285 246.781C195.928 245.936 194.853 244.784 194.059 243.325C193.291 241.866 192.907 240.227 192.907 238.41C192.907 236.566 193.291 234.915 194.059 233.456C194.853 231.997 195.915 230.845 197.246 230C198.603 229.155 200.152 228.733 201.893 228.733C203.224 228.733 204.414 229.002 205.464 229.539C206.539 230.077 207.397 230.832 208.037 231.805C208.702 232.752 209.061 233.827 209.112 235.03V241.635C209.061 242.838 208.715 243.926 208.075 244.899C207.435 245.872 206.578 246.64 205.502 247.203C204.427 247.766 203.224 248.048 201.893 248.048ZM202.738 243.402C203.685 243.402 204.504 243.197 205.195 242.787C205.912 242.352 206.462 241.763 206.846 241.021C207.256 240.253 207.461 239.37 207.461 238.371C207.461 237.398 207.256 236.541 206.846 235.798C206.462 235.03 205.912 234.442 205.195 234.032C204.504 233.597 203.698 233.379 202.776 233.379C201.829 233.379 200.997 233.597 200.28 234.032C199.589 234.467 199.038 235.056 198.629 235.798C198.245 236.541 198.053 237.398 198.053 238.371C198.053 239.37 198.245 240.253 198.629 241.021C199.038 241.763 199.602 242.352 200.318 242.787C201.035 243.197 201.842 243.402 202.738 243.402ZM212.184 247.664H207.192V242.672L207.998 238.141L207.154 233.686V219.901H212.184V247.664Z" fill="#A6E4D3"/>
<path d="M180.235 248.048C178.289 248.048 176.561 247.638 175.051 246.819C173.541 245.974 172.337 244.822 171.441 243.363C170.571 241.904 170.136 240.24 170.136 238.371C170.136 236.528 170.558 234.89 171.403 233.456C172.273 231.997 173.451 230.845 174.936 230C176.421 229.13 178.072 228.694 179.889 228.694C181.681 228.694 183.256 229.104 184.613 229.923C185.995 230.717 187.07 231.818 187.838 233.226C188.632 234.608 189.029 236.182 189.029 237.949C189.029 238.282 189.003 238.627 188.952 238.986C188.926 239.318 188.862 239.702 188.76 240.138L173.169 240.176V236.413L186.417 236.374L184.382 237.949C184.331 236.848 184.126 235.926 183.768 235.184C183.435 234.442 182.936 233.878 182.27 233.494C181.63 233.085 180.837 232.88 179.889 232.88C178.891 232.88 178.021 233.11 177.278 233.571C176.536 234.006 175.96 234.634 175.55 235.453C175.166 236.246 174.974 237.194 174.974 238.294C174.974 239.421 175.179 240.406 175.589 241.251C176.024 242.07 176.638 242.71 177.432 243.171C178.225 243.606 179.147 243.824 180.197 243.824C181.144 243.824 182.001 243.67 182.769 243.363C183.537 243.03 184.203 242.544 184.766 241.904L187.723 244.861C186.827 245.91 185.726 246.704 184.421 247.242C183.141 247.779 181.745 248.048 180.235 248.048Z" fill="#A6E4D3"/>
<path d="M136.145 247.664V229.117H141.175V247.664H136.145ZM148.241 247.664V236.72C148.241 235.645 147.895 234.813 147.204 234.224C146.538 233.609 145.706 233.302 144.708 233.302C144.042 233.302 143.441 233.443 142.903 233.725C142.365 233.981 141.943 234.365 141.636 234.877C141.329 235.389 141.175 236.003 141.175 236.72L139.217 235.76C139.217 234.326 139.524 233.085 140.138 232.035C140.778 230.985 141.636 230.179 142.711 229.616C143.786 229.027 145.002 228.733 146.359 228.733C147.639 228.733 148.804 229.027 149.853 229.616C150.903 230.179 151.735 230.985 152.349 232.035C152.964 233.059 153.271 234.301 153.271 235.76V247.664H148.241ZM160.337 247.664V236.72C160.337 235.645 159.991 234.813 159.3 234.224C158.634 233.609 157.802 233.302 156.804 233.302C156.164 233.302 155.562 233.443 154.999 233.725C154.461 233.981 154.039 234.365 153.732 234.877C153.425 235.389 153.271 236.003 153.271 236.72L150.391 236.029C150.493 234.544 150.89 233.264 151.581 232.189C152.273 231.088 153.181 230.243 154.308 229.654C155.434 229.04 156.689 228.733 158.071 228.733C159.453 228.733 160.695 229.027 161.796 229.616C162.897 230.179 163.767 230.998 164.407 232.073C165.047 233.149 165.367 234.429 165.367 235.913V247.664H160.337Z" fill="#A6E4D3"/>
<path d="M295.51 201.08V149.148H309.702V201.08H295.51ZM302.606 140.761C300.312 140.761 298.413 140.009 296.907 138.503C295.402 136.926 294.649 134.991 294.649 132.697C294.649 130.475 295.402 128.576 296.907 126.999C298.413 125.422 300.312 124.633 302.606 124.633C304.971 124.633 306.871 125.422 308.304 126.999C309.81 128.576 310.562 130.475 310.562 132.697C310.562 134.991 309.81 136.926 308.304 138.503C306.871 140.009 304.971 140.761 302.606 140.761Z" fill="#A6E4D3"/>
<path d="M267.928 201.08V171.297C267.928 168.215 266.961 165.706 265.025 163.771C263.09 161.835 260.581 160.868 257.499 160.868C255.492 160.868 253.7 161.298 252.123 162.158C250.546 163.018 249.292 164.237 248.36 165.814C247.5 167.391 247.07 169.218 247.07 171.297L241.586 168.502C241.586 164.416 242.446 160.868 244.166 157.857C245.958 154.775 248.396 152.374 251.478 150.653C254.632 148.933 258.18 148.073 262.122 148.073C265.921 148.073 269.326 149.04 272.337 150.976C275.347 152.839 277.713 155.312 279.433 158.395C281.153 161.405 282.014 164.667 282.014 168.179V201.08H267.928ZM232.984 201.08V149.148H247.07V201.08H232.984Z" fill="#A6E4D3"/>
<path d="M137.594 201.08V149.148H151.679V201.08H137.594ZM171.463 201.08V170.437C171.463 167.426 170.495 165.097 168.56 163.448C166.696 161.728 164.366 160.868 161.571 160.868C159.707 160.868 158.023 161.262 156.517 162.05C155.012 162.767 153.829 163.842 152.969 165.276C152.109 166.71 151.679 168.43 151.679 170.437L146.195 167.749C146.195 163.735 147.056 160.258 148.776 157.319C150.568 154.381 152.969 152.123 155.98 150.546C158.99 148.897 162.395 148.073 166.194 148.073C169.778 148.073 173.04 148.897 175.978 150.546C178.917 152.123 181.247 154.381 182.967 157.319C184.688 160.187 185.548 163.663 185.548 167.749V201.08H171.463ZM205.331 201.08V170.437C205.331 167.426 204.364 165.097 202.428 163.448C200.565 161.728 198.235 160.868 195.44 160.868C193.648 160.868 191.963 161.262 190.386 162.05C188.881 162.767 187.698 163.842 186.838 165.276C185.978 166.71 185.548 168.43 185.548 170.437L177.484 168.502C177.77 164.344 178.881 160.76 180.817 157.75C182.752 154.667 185.297 152.302 188.451 150.653C191.605 148.933 195.117 148.073 198.988 148.073C202.858 148.073 206.335 148.897 209.417 150.546C212.499 152.123 214.936 154.416 216.728 157.427C218.52 160.438 219.416 164.022 219.416 168.179V201.08H205.331Z" fill="#A6E4D3"/>
<path d="M98.6358 202.155C93.4031 202.155 88.6722 200.972 84.4431 198.607C80.2857 196.17 76.9526 192.908 74.4438 188.823C72.0066 184.665 70.7881 180.042 70.7881 174.953C70.7881 169.863 72.0066 165.312 74.4438 161.298C76.8809 157.212 80.214 153.986 84.4431 151.621C88.6722 149.184 93.3673 147.965 98.5282 147.965C103.833 147.965 108.563 149.184 112.721 151.621C116.95 153.986 120.283 157.212 122.72 161.298C125.157 165.312 126.376 169.863 126.376 174.953C126.376 180.042 125.157 184.665 122.72 188.823C120.283 192.908 116.95 196.17 112.721 198.607C108.563 200.972 103.868 202.155 98.6358 202.155ZM98.5282 189.038C101.18 189.038 103.51 188.464 105.517 187.317C107.596 186.099 109.173 184.45 110.248 182.371C111.395 180.221 111.968 177.784 111.968 175.06C111.968 172.336 111.395 169.935 110.248 167.856C109.101 165.778 107.524 164.165 105.517 163.018C103.51 161.799 101.18 161.19 98.5282 161.19C95.9478 161.19 93.654 161.799 91.647 163.018C89.6399 164.165 88.063 165.778 86.9161 167.856C85.7692 169.935 85.1958 172.336 85.1958 175.06C85.1958 177.784 85.7692 180.221 86.9161 182.371C88.063 184.45 89.6399 186.099 91.647 187.317C93.654 188.464 95.9478 189.038 98.5282 189.038Z" fill="#A6E4D3"/>
</svg>