<svg width="400" height="400" viewBox="0 0 400 400" fill="none" xmlns="http://www.w3.org/2000/svg" version="1.2" baseProfile="tiny">
<rect width="400" height="400" fill="black"/>
<path d="M136.145 247.664V229.117H141.175V247.664H136.145ZM148.241 247.664V236.72C148.241 235.645 147.895 234.813 147.204 234.224C146.539 233.61 145.707 233.302 144.708 233.302C144.043 233.302 143.441 233.443 142.903 233.725C142.366 233.981 141.943 234.365 141.636 234.877C141.329 235.389 141.175 236.003 141.175 236.72L139.217 235.76C139.217 234.326 139.524 233.085 140.139 232.035C140.779 230.986 141.636 230.179 142.711 229.616C143.787 229.027 145.003 228.733 146.359 228.733C147.639 228.733 148.804 229.027 149.854 229.616C150.903 230.179 151.735 230.986 152.35 232.035C152.964 233.059 153.271 234.301 153.271 235.76V247.664H148.241ZM160.337 247.664V236.72C160.337 235.645 159.991 234.813 159.3 234.224C158.635 233.61 157.803 233.302 156.804 233.302C156.164 233.302 155.563 233.443 154.999 233.725C154.462 233.981 154.039 234.365 153.732 234.877C153.425 235.389 153.271 236.003 153.271 236.72L150.391 236.029C150.494 234.544 150.891 233.264 151.582 232.189C152.273 231.088 153.182 230.243 154.308 229.654C155.435 229.04 156.689 228.733 158.071 228.733C159.454 228.733 160.695 229.027 161.796 229.616C162.897 230.179 163.767 230.998 164.407 232.074C165.047 233.149 165.367 234.429 165.367 235.914V247.664H160.337ZM180.235 248.048C178.29 248.048 176.562 247.638 175.051 246.819C173.541 245.974 172.338 244.822 171.442 243.363C170.571 241.904 170.136 240.24 170.136 238.371C170.136 236.528 170.559 234.89 171.403 233.456C172.274 231.997 173.451 230.845 174.936 230C176.421 229.13 178.072 228.694 179.89 228.694C181.682 228.694 183.256 229.104 184.613 229.923C185.995 230.717 187.071 231.818 187.839 233.226C188.632 234.608 189.029 236.182 189.029 237.949C189.029 238.282 189.003 238.627 188.952 238.986C188.927 239.318 188.863 239.702 188.76 240.138L173.17 240.176V236.413L186.418 236.374L184.383 237.949C184.331 236.848 184.127 235.926 183.768 235.184C183.435 234.442 182.936 233.878 182.271 233.494C181.631 233.085 180.837 232.88 179.89 232.88C178.891 232.88 178.021 233.11 177.279 233.571C176.536 234.006 175.96 234.634 175.551 235.453C175.167 236.246 174.975 237.194 174.975 238.294C174.975 239.421 175.179 240.406 175.589 241.251C176.024 242.07 176.639 242.71 177.432 243.171C178.226 243.606 179.147 243.824 180.197 243.824C181.144 243.824 182.002 243.67 182.77 243.363C183.538 243.03 184.203 242.544 184.767 241.904L187.723 244.861C186.827 245.91 185.727 246.704 184.421 247.242C183.141 247.779 181.746 248.048 180.235 248.048ZM201.894 248.048C200.178 248.048 198.642 247.626 197.286 246.781C195.929 245.936 194.854 244.784 194.06 243.325C193.292 241.866 192.908 240.227 192.908 238.41C192.908 236.566 193.292 234.915 194.06 233.456C194.854 231.997 195.916 230.845 197.247 230C198.604 229.155 200.153 228.733 201.894 228.733C203.225 228.733 204.415 229.002 205.465 229.539C206.54 230.077 207.398 230.832 208.038 231.805C208.703 232.752 209.062 233.827 209.113 235.03V241.635C209.062 242.838 208.716 243.926 208.076 244.899C207.436 245.872 206.578 246.64 205.503 247.203C204.428 247.766 203.225 248.048 201.894 248.048ZM202.738 243.402C203.686 243.402 204.505 243.197 205.196 242.787C205.913 242.352 206.463 241.763 206.847 241.021C207.257 240.253 207.462 239.37 207.462 238.371C207.462 237.398 207.257 236.541 206.847 235.798C206.463 235.03 205.913 234.442 205.196 234.032C204.505 233.597 203.698 233.379 202.777 233.379C201.83 233.379 200.998 233.597 200.281 234.032C199.59 234.467 199.039 235.056 198.63 235.798C198.246 236.541 198.054 237.398 198.054 238.371C198.054 239.37 198.246 240.253 198.63 241.021C199.039 241.763 199.602 242.352 200.319 242.787C201.036 243.197 201.842 243.402 202.738 243.402ZM212.185 247.664H207.193V242.672L207.999 238.141L207.154 233.686V219.901H212.185V247.664ZM218.555 247.664V229.117H223.624V247.664H218.555ZM221.089 226.122C220.27 226.122 219.592 225.853 219.054 225.315C218.517 224.752 218.248 224.061 218.248 223.242C218.248 222.448 218.517 221.77 219.054 221.206C219.592 220.643 220.27 220.362 221.089 220.362C221.934 220.362 222.613 220.643 223.125 221.206C223.662 221.77 223.931 222.448 223.931 223.242C223.931 224.061 223.662 224.752 223.125 225.315C222.613 225.853 221.934 226.122 221.089 226.122ZM237.757 248.048C236.067 248.048 234.544 247.626 233.187 246.781C231.83 245.936 230.768 244.784 230 243.325C229.232 241.866 228.848 240.227 228.848 238.41C228.848 236.566 229.232 234.915 230 233.456C230.768 231.997 231.83 230.845 233.187 230C234.544 229.155 236.067 228.733 237.757 228.733C239.088 228.733 240.278 229.002 241.328 229.539C242.378 230.077 243.21 230.832 243.824 231.805C244.464 232.752 244.81 233.827 244.861 235.03V241.712C244.81 242.941 244.464 244.029 243.824 244.976C243.21 245.923 242.378 246.678 241.328 247.242C240.278 247.779 239.088 248.048 237.757 248.048ZM238.678 243.402C240.086 243.402 241.226 242.941 242.096 242.019C242.966 241.072 243.402 239.856 243.402 238.371C243.402 237.398 243.197 236.541 242.787 235.798C242.403 235.03 241.853 234.442 241.136 234.032C240.445 233.597 239.626 233.379 238.678 233.379C237.757 233.379 236.938 233.597 236.221 234.032C235.53 234.442 234.979 235.03 234.57 235.798C234.186 236.541 233.994 237.398 233.994 238.371C233.994 239.37 234.186 240.253 234.57 241.021C234.979 241.763 235.53 242.352 236.221 242.787C236.938 243.197 237.757 243.402 238.678 243.402ZM243.133 247.664V242.672L243.939 238.141L243.133 233.686V229.117H248.125V247.664H243.133Z" fill="#A6E4D3"/>
<path d="M98.6354 202.155C93.4027 202.155 88.6718 200.973 84.4427 198.607C80.2853 196.17 76.9522 192.909 74.4434 188.823C72.0062 184.665 70.7877 180.042 70.7877 174.953C70.7877 169.863 72.0062 165.312 74.4434 161.298C76.8805 157.212 80.2136 153.986 84.4427 151.621C88.6718 149.184 93.3669 147.965 98.5278 147.965C103.832 147.965 108.563 149.184 112.72 151.621C116.95 153.986 120.283 157.212 122.72 161.298C125.157 165.312 126.376 169.863 126.376 174.953C126.376 180.042 125.157 184.665 122.72 188.823C120.283 192.909 116.95 196.17 112.72 198.607C108.563 200.973 103.868 202.155 98.6354 202.155ZM98.5278 189.038C101.18 189.038 103.51 188.464 105.517 187.318C107.595 186.099 109.172 184.45 110.248 182.372C111.394 180.221 111.968 177.784 111.968 175.06C111.968 172.336 111.394 169.935 110.248 167.856C109.101 165.778 107.524 164.165 105.517 163.018C103.51 161.799 101.18 161.19 98.5278 161.19C95.9474 161.19 93.6536 161.799 91.6466 163.018C89.6395 164.165 88.0626 165.778 86.9157 167.856C85.7688 169.935 85.1954 172.336 85.1954 175.06C85.1954 177.784 85.7688 180.221 86.9157 182.372C88.0626 184.45 89.6395 186.099 91.6466 187.318C93.6536 188.464 95.9474 189.038 98.5278 189.038ZM137.594 201.08V149.148H151.679V201.08H137.594ZM171.463 201.08V170.437C171.463 167.426 170.495 165.097 168.559 163.448C166.696 161.728 164.366 160.868 161.571 160.868C159.707 160.868 158.023 161.262 156.517 162.05C155.012 162.767 153.829 163.842 152.969 165.276C152.109 166.71 151.679 168.43 151.679 170.437L146.195 167.749C146.195 163.735 147.055 160.258 148.776 157.319C150.568 154.381 152.969 152.123 155.98 150.546C158.99 148.897 162.395 148.073 166.194 148.073C169.778 148.073 173.039 148.897 175.978 150.546C178.917 152.123 181.247 154.381 182.967 157.319C184.687 160.187 185.548 163.663 185.548 167.749V201.08H171.463ZM205.331 201.08V170.437C205.331 167.426 204.364 165.097 202.428 163.448C200.565 161.728 198.235 160.868 195.439 160.868C193.647 160.868 191.963 161.262 190.386 162.05C188.881 162.767 187.698 163.842 186.838 165.276C185.978 166.71 185.548 168.43 185.548 170.437L177.484 168.502C177.77 164.344 178.881 160.76 180.817 157.75C182.752 154.667 185.297 152.302 188.451 150.653C191.605 148.933 195.117 148.073 198.988 148.073C202.858 148.073 206.335 148.897 209.417 150.546C212.499 152.123 214.936 154.416 216.728 157.427C218.52 160.438 219.416 164.022 219.416 168.179V201.08H205.331ZM267.928 201.08V171.297C267.928 168.215 266.96 165.706 265.025 163.771C263.09 161.835 260.581 160.868 257.499 160.868C255.492 160.868 253.7 161.298 252.123 162.158C250.546 163.018 249.291 164.237 248.36 165.814C247.499 167.39 247.069 169.218 247.069 171.297L241.586 168.502C241.586 164.416 242.446 160.868 244.166 157.857C245.958 154.775 248.395 152.374 251.478 150.653C254.632 148.933 258.18 148.073 262.122 148.073C265.921 148.073 269.326 149.04 272.336 150.976C275.347 152.839 277.712 155.312 279.433 158.395C281.153 161.405 282.013 164.667 282.013 168.179V201.08H267.928ZM232.984 201.08V149.148H247.069V201.08H232.984ZM295.51 201.08V149.148H309.702V201.08H295.51ZM302.606 140.761C300.312 140.761 298.413 140.009 296.907 138.503C295.402 136.926 294.649 134.991 294.649 132.697C294.649 130.475 295.402 128.576 296.907 126.999C298.413 125.422 300.312 124.633 302.606 124.633C304.971 124.633 306.871 125.422 308.304 126.999C309.81 128.576 310.562 130.475 310.562 132.697C310.562 134.991 309.81 136.926 308.304 138.503C306.871 140.009 304.971 140.761 302.606 140.761Z" fill="#A6E4D3"/>
</svg>
